<svg id="Ebene_1" data-name="Ebene 1" xmlns="http://www.w3.org/2000/svg" viewBox="0 0 62 39">
  <defs>
    <style>
      .cls-1 {
        fill: #fff;
      }
    </style>
  </defs>
  <title>news</title>
  <g>
    <path class="cls-1" d="M12,29.14H9.61V18.87c0-1.2-.39-1.9-1.69-1.9a9.74,9.74,0,0,0-4.16,1.66v10.5H1.42v-14H3.76v1.51a9.32,9.32,0,0,1,4.5-1.77c2.5,0,3.69,1.4,3.69,4V29.14Z"/>
    <path class="cls-1" d="M27,22.62H18.22c0.18,3.12,2.05,4.65,4.29,4.65a20.55,20.55,0,0,0,4-.68l0.18,2.05a13.84,13.84,0,0,1-4.29.75c-3.67,0-6.66-2.39-6.66-7.28,0-4.39,2.5-7.28,6-7.28,3.85,0,5.33,3.15,5.33,7v0.75ZM24.69,20.9c0-2.42-.91-4.16-3-4.16-1.82,0-3.12,1.51-3.43,4.16h6.42Z"/>
    <path class="cls-1" d="M49.81,15.11l-3.93,14h-3.2l-3.22-12-3.22,12H33l-3.93-14h2.68l2.86,12.06,3.15-12.06h3.33l3.15,12.06,2.86-12.06h2.68Z"/>
    <path class="cls-1" d="M55.63,29.4a10.77,10.77,0,0,1-3.74-.62l0.21-2a11.51,11.51,0,0,0,3.46.6c1.43,0,2.42-.73,2.42-2.13C58,21.81,51.88,24,51.88,19c0-2.47,2-4.16,4.71-4.16a11.13,11.13,0,0,1,3.2.44l-0.18,2a11.28,11.28,0,0,0-2.94-.44,2,2,0,0,0-2.31,2c0,2.78,6.08.91,6.08,6.21C60.44,28.13,58.13,29.4,55.63,29.4Z"/>
  </g>
</svg>
